<svg width="33" height="33" viewBox="0 0 33 33" fill="none" xmlns="http://www.w3.org/2000/svg">
<path d="M28.4767 22.7472C28.9087 22.1295 29.3324 21.25 29.6601 20.1749C29.9571 19.2034 30.0376 18.4259 30.0858 17.9441C30.1794 16.99 30.1683 16.0285 30.0528 15.0767C29.7367 12.5692 28.7367 10.197 27.1623 8.21998C26.6571 7.59001 25.278 5.98951 22.935 4.74046C21.7089 4.08399 20.3906 3.6167 19.0248 3.35446C15.114 2.62516 11.2223 4.31872 9.82114 4.98037L10.4072 4.80283L15.909 5.59153L23.037 12.3829L24.72 22.4856L23.928 25.446L27.7055 23.5581C27.7055 23.5581 28.0909 23.298 28.4767 22.7472Z" fill="url(#paint0_linear_19_2)"/>
<path d="M21.6622 24.4827C22.3261 24.8477 22.8766 25.1008 23.299 25.3572C23.398 25.4179 23.5729 25.5249 23.7854 25.4975C23.9709 25.474 24.1435 25.3539 24.4401 24.9457C24.717 24.5655 24.8714 24.2527 25.0203 23.9557C25.5357 22.9248 25.4763 23.0977 25.6096 22.7958C25.8195 22.3163 25.9945 21.8223 26.1334 21.3177C26.2997 20.7079 26.4155 20.0853 26.4795 19.4565C26.562 18.7049 26.587 17.9481 26.5544 17.1927C26.5304 16.5714 26.4678 15.9522 26.367 15.3387C26.1824 14.2419 25.8586 13.1731 25.4034 12.1582C24.7718 10.7824 24.0422 9.87658 23.598 9.3334C22.0955 7.4953 20.5484 6.51653 20.2023 6.30236C19.9412 6.14099 18.8367 5.47142 17.2276 4.94606C15.6351 4.42631 14.3632 4.31048 13.991 4.2821C13.1591 4.21775 12.6222 4.1765 11.8958 4.29134C10.0208 4.58834 8.70936 5.63609 7.91076 6.27431C7.49516 6.61042 7.10143 6.97273 6.732 7.35902C5.71791 8.41329 4.8836 9.62674 4.26228 10.9511C4.07253 11.3599 3.31815 13.0413 3.09309 15.4038C2.86011 17.853 3.32211 19.701 3.43992 20.1468C3.71029 21.1706 4.1061 22.1571 4.61835 23.0838C4.57787 22.9217 4.53739 22.7596 4.49691 22.5974C4.41111 22.3687 4.33191 22.1232 4.25997 21.8615C4.18275 21.5777 3.96297 20.7016 3.97287 19.3796C3.98013 18.5302 5.55687 13.3492 7.32171 11.6154C8.12856 10.8234 9.51984 9.42713 12.0176 8.92124C12.7515 8.77274 14.6315 8.29424 16.7125 9.17897C18.9304 10.5495 20.031 12.0196 20.3712 12.639C21.5533 14.8038 21.3659 16.8023 21.323 17.2336C21.0844 19.6238 19.9132 21.1814 19.4512 21.6988L19.4264 22.5968C19.4264 22.5968 19.4449 23.2376 20.2917 23.7188L21.6622 24.4827Z" fill="url(#paint1_linear_19_2)"/>
<path d="M19.4509 21.7186C19.5472 21.6058 19.5515 21.5866 19.6066 21.5206C19.9558 21.1002 20.0802 20.9204 20.131 20.8461C20.3059 20.5913 20.4065 20.3953 20.555 20.1056C20.7098 19.8023 20.8722 19.4852 21.0203 19.0397C21.1169 18.7429 21.1941 18.44 21.2513 18.1332C21.3195 17.8194 21.3685 17.5018 21.3979 17.1821C21.4327 16.7713 21.4327 16.3584 21.3979 15.9476C21.3709 15.5094 21.3063 15.0742 21.2048 14.6471C21.1018 14.2174 20.9609 13.7978 20.7837 13.3931C20.6128 13.0061 20.4105 12.6339 20.1788 12.28C20.0015 12.0006 19.8078 11.7319 19.5987 11.4754C19.3829 11.2078 19.1463 10.9575 18.8912 10.727C17.2009 9.21163 16.4861 9.08623 16.3624 9.03079C14.9932 8.42128 13.5934 8.60377 12.9541 8.66251C12.4473 8.70937 11.1217 9.03541 10.6111 9.25222C10.1455 9.44963 9.69355 9.67772 9.25815 9.93499C8.70204 10.2655 8.17687 10.6454 7.689 11.0702C7.30427 11.4082 6.94379 11.7729 6.61023 12.1615C6.34373 12.4703 6.09495 12.794 5.86509 13.131C5.64234 13.461 5.48889 13.727 5.34435 13.9791C5.16747 14.2874 5.04735 14.4989 4.90776 14.7932C4.73098 15.1742 4.58091 15.567 4.45863 15.9687C4.33779 16.3318 4.23862 16.7017 4.16162 17.0765C4.07728 17.5075 4.02434 17.944 4.00322 18.3827C3.96758 18.9915 3.91742 19.9426 4.1108 21.1748C4.24082 22.0041 4.34477 22.6657 4.75034 23.4488C4.9193 23.7755 5.09685 24.022 5.45193 24.5154C5.79645 24.9939 6.22743 25.5928 6.90195 26.2832C7.48934 26.8844 8.13478 27.426 8.82882 27.9002C9.42419 28.3 10.0497 28.653 10.6996 28.9562C11.222 29.2017 12.0249 29.565 13.0617 29.8472C13.988 30.0996 14.7061 30.2726 15.6763 30.265C16.3611 30.259 17.0415 30.1551 17.6969 29.9564L17.7514 29.9393L17.688 29.931C17.5067 29.892 17.3289 29.8383 17.1564 29.7703C16.8617 29.6646 16.576 29.5355 16.302 29.3842C16.0656 29.2514 15.839 29.1018 15.6238 28.9367C15.3936 28.7591 15.1759 28.566 14.9721 28.3586C14.7982 28.1823 14.6342 27.9964 14.4811 27.8018L14.4441 27.7415C14.3959 27.7269 14.3471 27.7114 14.2979 27.6946C14.0735 27.619 13.955 27.5576 13.7699 27.4817C13.566 27.3996 13.5762 27.419 13.4039 27.3497C13.2317 27.2804 13.1376 27.2276 12.6865 26.9755C12.2047 26.7062 12.2037 26.7056 12.1753 26.6888C12.1093 26.6485 11.8483 26.4908 11.5361 26.2677C11.1609 25.997 10.8036 25.7022 10.4666 25.3853C9.97226 24.9357 9.52217 24.4397 9.12252 23.9042C8.69117 23.3137 8.32141 22.6475 8.019 21.9816C7.70936 21.3029 7.46911 20.6277 7.30191 19.9007C7.18311 19.3832 7.13163 18.9872 7.12107 18.9027C7.04055 18.2665 7.04517 17.7854 7.05507 17.0132C7.06332 16.398 7.10061 16.0892 7.1379 15.7816C7.21134 15.2216 7.34306 14.6708 7.53093 14.1382C7.73841 13.5358 8.01457 12.9594 8.35395 12.4202C8.70436 11.8768 9.1213 11.3792 9.59508 10.9392C10.0048 10.5656 10.4166 10.2325 10.8903 9.94456C11.318 9.6807 11.7677 9.45425 12.2344 9.26773C12.9023 9.00637 13.7287 8.68297 14.8285 8.73973C15.5085 8.77428 16.174 8.9484 16.7838 9.25123C17.1297 9.43101 17.454 9.64968 17.7504 9.90298C18.0028 10.1175 18.3711 10.4356 18.7014 10.9662C19.0146 11.4772 19.2154 12.049 19.2905 12.6436C19.3164 12.8568 19.3269 13.0715 19.3218 13.2861C19.3238 14.784 19.4509 21.7186 19.4509 21.7186Z" fill="url(#paint2_linear_19_2)"/>
<path d="M14.7461 8.7285C14.2329 8.70639 13.7192 8.75244 13.2182 8.86545C12.3239 9.06807 11.7051 9.43371 11.157 9.75645C10.6416 10.0583 10.1581 10.4113 9.71355 10.8101C8.7533 11.682 8.0147 12.7701 7.55898 13.9844C7.20159 14.9374 7.1181 15.7087 7.06002 16.2796C6.85828 18.3553 7.24061 20.4462 8.16387 22.3162C8.54729 23.0877 9.02253 23.8431 9.57924 24.5005C10.084 25.0852 10.648 25.6161 11.2622 26.0845C11.6411 26.3752 12.2245 26.8214 13.1043 27.2375C13.4943 27.4233 13.8966 27.5818 14.3085 27.7121L14.4494 27.751C14.4349 27.7259 14.3741 27.652 14.3461 27.6071C14.3002 27.5332 14.2666 27.4831 14.2326 27.4319C14.2326 27.4319 14.2167 27.4078 14.091 27.2125C14.0016 27.0735 13.7128 26.5485 13.5884 26.231C13.2888 25.3658 13.331 24.7606 13.3294 24.6609L13.3333 10.1739C13.3308 10.1299 13.3308 10.0859 13.3333 10.0419C13.3373 9.98973 13.3442 9.93784 13.3541 9.88647C13.3934 9.69019 13.4692 9.50303 13.5775 9.33471C13.6921 9.17477 13.8406 9.04214 14.0125 8.9463C14.2358 8.81552 14.4875 8.74079 14.7461 8.7285Z" fill="url(#paint3_linear_19_2)"/>
<defs>
<linearGradient id="paint0_linear_19_2" x1="34.848" y1="16.8135" x2="13.3124" y2="16.7027" gradientUnits="userSpaceOnUse">
<stop offset="0.209057" stop-color="#F05F1C"/>
<stop offset="0.387553" stop-color="#F0671A"/>
<stop offset="0.964679" stop-color="#ED8612"/>
</linearGradient>
<linearGradient id="paint1_linear_19_2" x1="19.3545" y1="17.424" x2="6.92599" y2="15.3963" gradientUnits="userSpaceOnUse">
<stop offset="0.235" stop-color="#F1561E"/>
<stop offset="1" stop-color="#E48112"/>
</linearGradient>
<linearGradient id="paint2_linear_19_2" x1="3.95999" y1="18.6615" x2="21.1695" y2="18.2985" gradientUnits="userSpaceOnUse">
<stop stop-color="#FFD40D"/>
<stop offset="0.253209" stop-color="#F39F10"/>
<stop offset="0.819904" stop-color="#DF4C16"/>
<stop offset="0.838239" stop-color="#DF4C16"/>
</linearGradient>
<linearGradient id="paint3_linear_19_2" x1="7.2765" y1="16.3845" x2="18.0081" y2="17.1716" gradientUnits="userSpaceOnUse">
<stop offset="0.189999" stop-color="#FABD0F"/>
<stop offset="1" stop-color="#DF4C16"/>
</linearGradient>
</defs>
</svg>
